<svg width="52" height="52" fill="none" xmlns="http://www.w3.org/2000/svg"><path d="M47.622 4.378a1.287 1.287 0 00-1.028-.373c-.159.015-3.953.376-9.156 2.122C20.504 11.343 9.296 27.763 4.085 39.642c-.328.784.334 1.834 1.327 1.747l5.756-.56-.56 5.756c-.062.827.742 1.699 1.747 1.327 20.68-9.423 33.293-23.845 35.64-42.506a1.288 1.288 0 00-.373-1.028zM30.96 32.707a76.21 76.21 0 01-6.62 5.373V16.134a41.37 41.37 0 016.62-4.409v20.982zm-12.578 9.272a64.47 64.47 0 01-4.995 2.66l.498-5.12c.074-.665-.542-1.508-1.408-1.407l-5.117.498c1.73-3.668 6.385-12.207 14.403-20.154v21.41a73.758 73.758 0 01-3.38 2.113zm25.023-28.166c-1.514 4.485-4.453 10.961-9.868 16.428v-19.8c3.528-1.703 8.916-3.23 11.657-3.635a46.992 46.992 0 01-1.789 7.007z" fill="#000"/></svg>