<svg width="44" height="31" fill="none" xmlns="http://www.w3.org/2000/svg"><path d="M33.231 19.412a5.552 5.552 0 00-5.546 5.546 5.552 5.552 0 005.546 5.546 5.552 5.552 0 005.546-5.546 5.552 5.552 0 00-5.546-5.546zm0 8.32a2.776 2.776 0 01-2.773-2.774 2.776 2.776 0 012.773-2.773 2.776 2.776 0 012.773 2.773 2.776 2.776 0 01-2.773 2.773zM14.281 19.412a5.552 5.552 0 00-5.546 5.546 5.552 5.552 0 005.546 5.546 5.552 5.552 0 005.547-5.546 5.553 5.553 0 00-5.546-5.546zm0 8.32a2.776 2.776 0 01-2.773-2.774 2.776 2.776 0 012.774-2.773 2.776 2.776 0 012.773 2.773 2.776 2.776 0 01-2.774 2.773zM36.966 3.537a1.387 1.387 0 00-1.24-.764h-7.302v2.773h6.448l3.775 7.51 2.479-1.246-4.16-8.273z" fill="#000"/><path d="M29.072 23.618H18.58v2.773h10.492v-2.773zM10.122 23.618H5.315a1.386 1.386 0 100 2.773h4.807a1.386 1.386 0 100-2.773zM43.709 15.141L40.98 11.63a1.385 1.385 0 00-1.094-.537H29.81V1.387C29.81.62 29.19 0 28.424 0H5.315a1.386 1.386 0 100 2.773h21.723v9.706c0 .766.62 1.386 1.386 1.386h10.784l2.019 2.602v7.15H37.39a1.386 1.386 0 100 2.774h5.222c.766 0 1.387-.621 1.387-1.387v-9.012c0-.308-.103-.608-.291-.85zM10.03 16.593H3.65a1.386 1.386 0 100 2.773h6.378a1.386 1.386 0 100-2.773zM13.219 11.139H1.386a1.387 1.387 0 000 2.773h11.832a1.386 1.386 0 100-2.773z" fill="#000"/><path d="M15.483 5.685H3.651a1.386 1.386 0 100 2.773h11.832a1.386 1.386 0 100-2.773z" fill="#000"/></svg>