<svg width="24" height="24" fill="none" xmlns="http://www.w3.org/2000/svg"><path d="M23.948 18.596c-.068-.205-.5-.506-1.295-.904a39.775 39.775 0 00-.92-.511 85.168 85.168 0 01-1.083-.597 36.067 36.067 0 01-.912-.528 22.128 22.128 0 00-.426-.298 4.786 4.786 0 00-.605-.367 1.117 1.117 0 00-.486-.12c-.227 0-.51.163-.852.487-.34.324-.653.676-.937 1.057-.284.38-.585.732-.903 1.056-.318.324-.58.486-.784.486a1.16 1.16 0 01-.384-.085 3.991 3.991 0 01-.35-.144c-.079-.04-.215-.12-.408-.24-.194-.119-.302-.184-.324-.196-1.557-.863-2.892-1.852-4.006-2.965-1.113-1.114-2.102-2.45-2.966-4.006a9.956 9.956 0 00-.196-.324 6.125 6.125 0 01-.239-.41 3.692 3.692 0 01-.144-.349 1.153 1.153 0 01-.086-.383c0-.205.162-.466.486-.784.324-.318.677-.62 1.057-.903.38-.284.733-.597 1.057-.938.324-.34.486-.625.486-.852 0-.159-.04-.32-.12-.486a4.738 4.738 0 00-.366-.605c-.165-.238-.264-.38-.299-.426-.17-.284-.346-.588-.528-.912-.182-.324-.38-.685-.597-1.082a40.51 40.51 0 00-.51-.92C5.91.55 5.607.119 5.403.05A.955.955 0 005.046 0c-.307 0-.707.057-1.202.17-.494.114-.883.233-1.167.358-.569.239-1.17.932-1.807 2.08C.29 3.676 0 4.733 0 5.778c0 .307.02.605.06.895.04.29.111.616.213.98.103.364.185.634.247.81.063.176.18.49.35.946.17.454.272.732.307.835a15.44 15.44 0 001.414 2.983c.897 1.454 2.122 2.957 3.673 4.508 1.551 1.551 3.054 2.776 4.509 3.674.875.545 1.87 1.016 2.983 1.414.102.034.38.136.835.307.454.17.77.287.946.35.176.062.446.145.809.247.364.102.69.174.98.214.29.039.588.06.895.06 1.045 0 2.102-.29 3.17-.87 1.148-.637 1.841-1.239 2.08-1.807.125-.284.244-.673.358-1.168.114-.494.17-.894.17-1.201a.951.951 0 00-.05-.36z" fill="#000"/></svg>