<svg width="44" height="44" fill="none" xmlns="http://www.w3.org/2000/svg"><path d="M42.71 15.555h-9.224l.003-.024a10.462 10.462 0 002.555-3.267 1.289 1.289 0 00-1.153-1.866H32.9a11.404 11.404 0 00-1.882-3.367c.105-1.41-.064-2.791-.504-4.111a1.289 1.289 0 00-2.134-.504l-1.41 1.41a11.393 11.393 0 00-3.704-1.05c-.973-1.145-2.094-2.052-3.269-2.64a1.29 1.29 0 00-1.865 1.153v2.076a11.405 11.405 0 00-3.368 1.882 10.459 10.459 0 00-4.11.504 1.289 1.289 0 00-.505 2.134l1.41 1.41A11.394 11.394 0 0010.51 13a10.503 10.503 0 00-2.162 2.554H1.29c-.712 0-1.289.577-1.289 1.289V22c0 .712.577 1.29 1.29 1.29h1.374V42.71c0 .712.577 1.29 1.29 1.29h5.155a1.29 1.29 0 001.29-1.29v-4.37L22 33.702l11.602 4.64v4.37c0 .712.577 1.289 1.289 1.289h5.156a1.29 1.29 0 001.289-1.29V23.29h1.375A1.29 1.29 0 0044 22v-5.156a1.29 1.29 0 00-1.29-1.29zm-30.172-.882c.294-.228.476-.572.498-.943a8.877 8.877 0 011.22-4.018 1.29 1.29 0 00-.199-1.566l-.347-.347c.431-.013.868.008 1.308.064a1.29 1.29 0 001.018-.316 8.892 8.892 0 013.709-1.982c.569-.147.966-.66.966-1.247v-.51c.307.302.602.635.882.996.228.294.571.475.942.498a8.876 8.876 0 014.018 1.22 1.29 1.29 0 001.566-.199l.348-.347c.013.43-.008.868-.064 1.308-.047.369.068.74.315 1.018a8.892 8.892 0 011.982 3.709c.147.568.66.966 1.248.966h.486c-.296.315-.62.609-.972.882a1.29 1.29 0 00-.498.942 9.16 9.16 0 01-.077.754h-5.242A3.872 3.872 0 0022 10.399a3.872 3.872 0 00-3.645 5.156h-6.789c.296-.315.62-.61.972-.882zm10.751-.407c0 .71-.578 1.289-1.289 1.289a1.29 1.29 0 01-1.29-1.29 1.29 1.29 0 012.578 0zM7.82 41.422H5.242V23.289H7.82v18.133zm2.578-5.857V29.06l8.131 3.253-8.13 3.252zm23.204 0l-8.131-3.252 8.13-3.253v6.505zm0-9.281L22 30.924l-11.602-4.64v-2.995h23.204v2.994zm5.156 15.138H36.18V23.289h2.578v18.133zm2.664-20.711H2.578v-2.578h38.844v2.578z" fill="#000"/></svg>